<svg xmlns="http://www.w3.org/2000/svg" width="66.07" height="36.894" viewBox="0 0 66.07 36.894">
  <g id="agreement" transform="translate(0 -106.666)">
    <g id="Grupo_38449" data-name="Grupo 38449" transform="translate(0 106.666)">
      <g id="Grupo_38448" data-name="Grupo 38448" transform="translate(0 0)">
        <path id="Caminho_44690" data-name="Caminho 44690" d="M15.967,109.565c-2.2-2.108-11.562-2.635-14.591-2.9a1.041,1.041,0,0,0-.826.263A1.967,1.967,0,0,0,0,107.984V131.7a1.274,1.274,0,0,0,1.377,1.318H9.635a1.525,1.525,0,0,0,1.377-.791c0-.791,4.955-14.757,5.506-21.609A1.037,1.037,0,0,0,15.967,109.565Z" transform="translate(0 -106.666)" fill="blue"/>
      </g>
    </g>
    <g id="Grupo_38451" data-name="Grupo 38451" transform="translate(23.365 112.2)">
      <g id="Grupo_38450" data-name="Grupo 38450" transform="translate(0 0)">
        <path id="Caminho_44691" data-name="Caminho 44691" d="M203.12,155.156c-2.753-.791-5.231-1.845-7.433-2.635-4.955-2.108-7.158-1.054-11.562,3.162-1.927,1.845-3.3,4.48-3.028,5.534,0,.263,0,.263.551.527,1.376.527,3.3.791,5.231-2.108a1.452,1.452,0,0,1,1.1-.527,5.276,5.276,0,0,0,1.927-.527,13.746,13.746,0,0,1,1.927-.791h.551c.275,0,.826.263,1.1.263,1.377,1.318,3.854,3.162,6.332,5.271,3.854,2.9,7.708,6.061,9.635,8.433h.275C207.8,166.488,204.5,157.528,203.12,155.156Z" transform="translate(-181.061 -151.467)" fill="blue"/>
      </g>
    </g>
    <g id="Grupo_38453" data-name="Grupo 38453" transform="translate(46.8 109.301)">
      <g id="Grupo_38452" data-name="Grupo 38452" transform="translate(0 0)">
        <path id="Caminho_44692" data-name="Caminho 44692" d="M380.56,128a50.181,50.181,0,0,0-17.068,2.635l-.826.791a1.532,1.532,0,0,0,.275,1.054c1.652,2.635,7.158,17.129,7.984,20.818a1.817,1.817,0,0,0,1.376,1.054h8.259a1.274,1.274,0,0,0,1.377-1.318V129.317A1.274,1.274,0,0,0,380.56,128Z" transform="translate(-362.666 -128)" fill="blue"/>
      </g>
    </g>
    <g id="Grupo_38455" data-name="Grupo 38455" transform="translate(14.315 114.572)">
      <g id="Grupo_38454" data-name="Grupo 38454">
        <path id="Caminho_44693" data-name="Caminho 44693" d="M146.447,191.222c-1.1-2.372-5.781-5.8-9.911-8.96-2.2-1.845-4.4-3.426-6.056-4.744-.275.263-.826.263-.826.527a5.372,5.372,0,0,1-2.2.527c-2.2,2.635-4.955,3.689-7.983,2.635a3.185,3.185,0,0,1-2.478-2.372c-.551-2.635,1.927-6.325,3.854-8.169h-5.506a129.806,129.806,0,0,1-4.4,15.811,30.5,30.5,0,0,0,3.028,2.9c5.231,4.216,11.287,8.433,12.388,9.223a8.067,8.067,0,0,0,3.3,1.054h.826l-4.4-4.216a1.236,1.236,0,0,1,0-1.845,1.372,1.372,0,0,1,1.927,0l5.506,5.271c.551.527,1.1.263,1.652.263a2.067,2.067,0,0,0,1.377-1.581l-6.332-6.061a1.236,1.236,0,0,1,0-1.845,1.372,1.372,0,0,1,1.927,0l6.882,6.588a3.066,3.066,0,0,0,2.2,0c.275-.263.826-.527,1.1-1.054l-7.708-7.379a1.236,1.236,0,0,1,0-1.845,1.372,1.372,0,0,1,1.927,0l7.984,7.642a1.887,1.887,0,0,0,1.652-.263A1.734,1.734,0,0,0,146.447,191.222Z" transform="translate(-110.934 -170.667)" fill="blue"/>
      </g>
    </g>
  </g>
</svg>
