<svg xmlns="http://www.w3.org/2000/svg" width="42.855" height="49.441" viewBox="0 0 42.855 49.441">
  <g id="Grupo_38505" data-name="Grupo 38505" transform="translate(-596 -1410.607)">
    <path id="Caminho_44775" data-name="Caminho 44775" d="M60.23,156.009c-7.776-.042-14.208-15.063-14.208-22.713,0-12.5,9.906-15.232,13.724-15.232a16.529,16.529,0,0,1,5.178,1.205,12.088,12.088,0,0,0,2.957.8A9.582,9.582,0,0,0,70,119.421a17.789,17.789,0,0,1,6.393-1.463h.015c1.873,0,7.552.389,10.966,5.241l.8,1.137-1.151.822c-1.644,1.174-4.644,3.316-4.644,7.558,0,5.024,3.4,6.957,5.03,7.886.721.41,1.466.833,1.466,1.758,0,.6-5.094,13.574-12.492,13.574a10.507,10.507,0,0,1-4.218-.969,8.948,8.948,0,0,0-3.755-.856,10.1,10.1,0,0,0-2.973.761,15.251,15.251,0,0,1-5.157,1.139Z" transform="translate(549.978 1304.04)"/>
    <path id="Caminho_44776" data-name="Caminho 44776" d="M264.97,0c.193,6.574-4.776,11.134-9.738,10.848C254.415,5.6,260.194,0,264.97,0Z" transform="translate(362.187 1410.607)"/>
  </g>
</svg>
