<svg xmlns="http://www.w3.org/2000/svg" width="1685.296" height="1685.296" viewBox="0 0 1685.296 1685.296">
  <g id="Grupo_38752" data-name="Grupo 38752" transform="translate(101.636 -520.027)">
    <g id="Caminho_44824" data-name="Caminho 44824" transform="translate(741.012 496.508) rotate(45)" fill="#202020" opacity="0.05">
      <path d="M 604.617919921875 1065.814575195313 C 484.5003051757813 1065.814575195313 372.1058654785156 1019.268981933594 288.1385192871094 934.7522583007813 C 204.1685333251953 850.2327880859375 158.3561706542969 737.4887084960938 159.1402893066406 617.2883911132813 C 160.77734375 366.3019409179688 366.3017578125 160.7775268554688 617.2885131835938 159.1401672363281 L 620.3273315429688 159.1301727294922 C 740.4447021484375 159.1301727294922 852.8388061523438 205.6754608154297 936.80615234375 290.1922302246094 C 1020.776184082031 374.7116394042969 1066.5888671875 487.4560546875 1065.8046875 607.6563720703125 C 1064.167358398438 858.642822265625 858.6429443359375 1064.167236328125 607.6561889648438 1065.804565429688 L 604.617919921875 1065.814575195313 Z" stroke="none"/>
      <path d="M 620.3273315429688 301.6304321289063 L 618.2178344726563 301.63720703125 C 444.7860107421875 302.7681274414063 302.7682495117188 444.785888671875 301.6373291015625 618.2177124023438 C 301.102783203125 700.180419921875 332.2100830078125 776.9263305664063 389.2296142578125 834.318603515625 C 446.2459716796875 891.7081298828125 522.7387084960938 923.3140869140625 604.6168823242188 923.3140869140625 L 606.7264404296875 923.3072509765625 C 780.15869140625 922.1763305664063 922.1764526367188 780.1585693359375 923.3078002929688 606.7276611328125 C 923.8423461914063 524.7645263671875 892.734619140625 448.0181274414063 835.715087890625 390.6258544921875 C 778.69873046875 333.236328125 702.2059936523438 301.6304321289063 620.3273315429688 301.6304321289063 M 620.3271484375 16.6302490234375 C 947.5800170898438 16.6302490234375 1210.439331054688 280.8236694335938 1208.301879882813 608.5858764648438 C 1206.155029296875 937.6527099609375 937.65283203125 1206.154907226563 608.5855102539063 1208.30126953125 C 607.280029296875 1208.309814453125 605.9205932617188 1208.314208984375 604.6171264648438 1208.314208984375 C 277.3646850585938 1208.314208984375 14.50537109375 944.120849609375 16.643310546875 616.3590698242188 C 18.7896728515625 287.2913208007813 287.2914428710938 18.78955078125 616.3587036132813 16.6431884765625 C 617.6642456054688 16.6346435546875 619.023681640625 16.6302490234375 620.3271484375 16.6302490234375 Z" stroke="none" fill="#3a4151"/>
    </g>
    <g id="Caminho_44825" data-name="Caminho 44825" transform="translate(741.012 760.666) rotate(45)" fill="#fff" opacity="0.03">
      <path d="M 423.0133056640625 702.8831787109375 C 350.4600524902344 702.8831787109375 282.6083068847656 674.805419921875 231.9565582275391 623.8221435546875 C 181.3028106689453 572.837158203125 153.6673126220703 504.7694091796875 154.1410675048828 432.1578979492188 C 155.1345672607422 279.8524169921875 279.8525695800781 155.1346588134766 432.1578063964844 154.1411590576172 C 506.5580749511719 154.1351623535156 574.4100341796875 182.2129058837891 625.0618286132813 233.1959075927734 C 675.71533203125 284.18115234375 703.350830078125 352.2489013671875 702.8770751953125 424.8604125976563 C 701.883544921875 577.1656494140625 577.1655883789063 701.8836669921875 424.8600769042969 702.8771362304688 L 423.0133056640625 702.8831787109375 Z" stroke="none"/>
      <path d="M 434.0044555664063 296.6349487304688 L 433.0875244140625 296.6380004882813 C 358.3367614746094 297.1256713867188 297.1256103515625 358.3368530273438 296.637939453125 433.0872192382813 C 296.3356323242188 479.466064453125 319.31982421875 509.5714721679688 333.0475463867188 523.3887939453125 C 346.7740783691406 537.2049560546875 376.7144470214844 560.3834228515625 423.9306030273438 560.3803100585938 C 498.6813659667969 559.892578125 559.8925170898438 498.6814575195313 560.3802490234375 423.9310913085938 C 560.6824951171875 377.55224609375 537.6983032226563 347.4468383789063 523.9705810546875 333.6295166015625 C 510.2440490722656 319.8134155273438 480.3036804199219 296.6349487304688 434.0044555664063 296.6349487304688 M 434.0044860839844 11.63507080078125 C 662.9628295898438 11.63507080078125 846.86962890625 196.4752197265625 845.3740844726563 425.7899169921875 C 843.8721313476563 656.0180053710938 656.0179443359375 843.8722534179688 425.7898254394531 845.3741455078125 C 424.87646484375 845.380126953125 423.9255981445313 845.3832397460938 423.0136413574219 845.3832397460938 C 194.0552978515625 845.3832397460938 10.14849853515625 660.5430908203125 11.64404296875 431.2283935546875 C 13.14599609375 201.0003051757813 201.000244140625 13.14605712890625 431.2283020019531 11.6441650390625 C 432.1416625976563 11.63818359375 433.092529296875 11.63507080078125 434.0044860839844 11.63507080078125 Z" stroke="none" fill="#3a4151"/>
    </g>
  </g>
</svg>
