<svg xmlns="http://www.w3.org/2000/svg" width="2453.625" height="2453.625" viewBox="0 0 2453.625 2453.625">
  <g id="Grupo_38752" data-name="Grupo 38752" transform="translate(117.773 -536.649)">
    <g id="Caminho_44824" data-name="Caminho 44824" transform="translate(1109.039 550.023) rotate(45)" fill="#202020" opacity="0.05">
      <path d="M 839.0267944335938 1583.017944335938 C 647.6514892578125 1583.017944335938 469.035400390625 1508.998657226563 336.0814819335938 1374.595703125 C 203.1007537841797 1240.165405273438 131.0093231201172 1060.60107421875 133.0868225097656 868.9804077148438 C 137.43896484375 467.5596923828125 467.5596923828125 137.43896484375 868.9804077148438 133.0868225097656 L 877.0332641601563 133.0428924560547 C 1068.408935546875 133.0428924560547 1247.025756835938 207.0621795654297 1379.979736328125 341.4657592773438 C 1512.96044921875 475.895751953125 1585.051879882813 655.4600219726563 1582.973999023438 847.0803833007813 C 1578.621826171875 1248.501098632813 1248.501098632813 1578.621826171875 847.0803833007813 1582.973999023438 L 839.0267944335938 1583.017944335938 Z" stroke="none"/>
      <path d="M 877.0333862304688 275.5428466796875 L 870.525390625 275.577880859375 C 545.9893798828125 279.096923828125 279.096923828125 545.9893798828125 275.578369140625 870.525390625 C 273.9163818359375 1023.792907714844 331.3818359375 1167.217895507813 437.388916015625 1274.38037109375 C 543.368896484375 1381.515869140625 686.0068359375 1440.517822265625 839.0274047851563 1440.517822265625 L 845.535400390625 1440.48291015625 C 1170.071411132813 1436.9638671875 1436.9638671875 1170.071411132813 1440.482421875 845.535400390625 C 1442.144409179688 692.2678833007813 1384.678955078125 548.8428955078125 1278.671875 441.680419921875 C 1172.69189453125 334.544921875 1030.053955078125 275.5428466796875 877.0333862304688 275.5428466796875 M 877.0332641601563 -9.4571533203125 C 1351.649658203125 -9.4571533203125 1730.625366210938 372.7415771484375 1725.465942382813 848.6253662109375 C 1720.271362304688 1327.696899414063 1327.696899414063 1720.271362304688 848.6253662109375 1725.465942382813 C 845.438232421875 1725.50048828125 842.2061767578125 1725.517944335938 839.0275268554688 1725.517944335938 C 364.4111328125 1725.517944335938 -14.5645751953125 1343.319213867188 -9.4051513671875 867.4354248046875 C -4.2105712890625 388.3638916015625 388.3638916015625 -4.2105712890625 867.4354248046875 -9.4051513671875 C 870.62255859375 -9.439697265625 873.8546142578125 -9.4571533203125 877.0332641601563 -9.4571533203125 Z" stroke="none" fill="#3a4151"/>
    </g>
    <g id="Caminho_44825" data-name="Caminho 44825" transform="translate(1109.039 920.284) rotate(45)" fill="#fff" opacity="0.03">
      <path d="M 587.01513671875 1064.738403320313 C 464.6419067382813 1064.738403320313 350.4819030761719 1017.462524414063 265.5642700195313 931.6192626953125 C 180.6277923583984 845.7568969726563 134.5827941894531 730.9816284179688 135.91162109375 608.4357299804688 C 138.7060394287109 350.6798706054688 350.6798706054688 138.7060394287109 608.43603515625 135.91162109375 L 613.6060180664063 135.8833923339844 C 735.9795532226563 135.8833923339844 850.14013671875 183.1595611572266 935.05810546875 269.0033874511719 C 1019.994262695313 354.8657531738281 1066.038940429688 469.6407470703125 1064.710205078125 592.18603515625 C 1061.915771484375 849.9425048828125 849.9425048828125 1061.915771484375 592.1863403320313 1064.710205078125 L 587.01513671875 1064.738403320313 Z" stroke="none"/>
      <path d="M 613.6055908203125 278.38330078125 L 609.9815063476563 278.40283203125 C 429.1096801757813 280.3641967773438 280.3641967773438 429.1096801757813 278.40283203125 609.9805908203125 C 277.4901123046875 694.1728515625 308.9092407226563 772.8092041015625 366.8714599609375 831.4037475585938 C 424.8155517578125 889.979248046875 502.9973754882813 922.23828125 587.0155639648438 922.23828125 L 590.6410522460938 922.21875 C 771.5123901367188 920.2578125 920.2578125 771.5123901367188 922.21875 590.6410522460938 C 923.1314697265625 506.4487915039063 891.712890625 427.8128662109375 833.7501220703125 369.2183227539063 C 775.8060302734375 310.6423950195313 697.623779296875 278.38330078125 613.6055908203125 278.38330078125 M 613.6055908203125 -6.61669921875 C 945.665283203125 -6.61669921875 1210.811889648438 260.7841186523438 1207.201904296875 593.7310180664063 C 1203.56787109375 928.9074096679688 928.9074096679688 1203.56787109375 593.7310180664063 1207.201904296875 C 591.5011596679688 1207.22607421875 589.2396240234375 1207.238403320313 587.0156860351563 1207.238403320313 C 254.9555053710938 1207.238403320313 -10.1898193359375 939.8375244140625 -6.580322265625 606.8910522460938 C -2.94580078125 271.7142333984375 271.7142333984375 -2.94580078125 606.8910522460938 -6.580322265625 C 609.1209106445313 -6.6044921875 611.3816528320313 -6.61669921875 613.6055908203125 -6.61669921875 Z" stroke="none" fill="#3a4151"/>
    </g>
  </g>
</svg>
