<svg xmlns="http://www.w3.org/2000/svg" width="433.559" height="393.916" viewBox="0 0 433.559 393.916">
  <g id="Grupo_38750" data-name="Grupo 38750" transform="translate(-244.441 8633.5) rotate(180)">
    <rect id="Retângulo_3977" data-name="Retângulo 3977" width="254" height="91" transform="translate(-678 8415)" fill="#262d8f"/>
    <ellipse id="Elipse_1307" data-name="Elipse 1307" cx="24" cy="23" rx="24" ry="23" transform="translate(-428 8364)" fill="#5677ff"/>
    <path id="Polígono_5" data-name="Polígono 5" d="M43.716,4.382a5,5,0,0,1,7.568,0l36.575,42.35A5,5,0,0,1,84.075,55H10.925a5,5,0,0,1-3.784-8.268Z" transform="translate(-369.553 8292.584) rotate(47)" fill="#002292"/>
    <rect id="Retângulo_3978" data-name="Retângulo 3978" width="218" height="91" transform="translate(-424.5 8415.5) rotate(90)" fill="#262d8f"/>
    <path id="Polígono_6" data-name="Polígono 6" d="M54.269,4.181a5,5,0,0,1,7.461,0l46.837,52.49A5,5,0,0,1,104.837,65H11.163a5,5,0,0,1-3.731-8.329Z" transform="translate(-323.553 8239.584) rotate(47)" fill="#00256e"/>
  </g>
</svg>
