<svg xmlns="http://www.w3.org/2000/svg" width="424.559" height="393.917" viewBox="0 0 424.559 393.917">
  <g id="Grupo_38749" data-name="Grupo 38749" transform="translate(-122 -666.583)">
    <rect id="Retângulo_3370" data-name="Retângulo 3370" width="254" height="91" transform="translate(122 842)" fill="#262d8f"/>
    <ellipse id="Elipse_767" data-name="Elipse 767" cx="24" cy="23" rx="24" ry="23" transform="translate(372 791)" fill="#5677ff"/>
    <path id="Polígono_1" data-name="Polígono 1" d="M43.716,4.382a5,5,0,0,1,7.568,0l36.575,42.35A5,5,0,0,1,84.075,55H10.925a5,5,0,0,1-3.784-8.268Z" transform="translate(421.447 719.583) rotate(47)" fill="#002292"/>
    <rect id="Retângulo_3371" data-name="Retângulo 3371" width="218" height="91" transform="translate(375.5 842.5) rotate(90)" fill="#262d8f"/>
    <path id="Polígono_2" data-name="Polígono 2" d="M54.269,4.181a5,5,0,0,1,7.461,0l46.837,52.49A5,5,0,0,1,104.837,65H11.163a5,5,0,0,1-3.731-8.329Z" transform="translate(467.447 666.583) rotate(47)" fill="#00256e"/>
  </g>
</svg>
