<svg xmlns="http://www.w3.org/2000/svg" width="359.559" height="381.917" viewBox="0 0 359.559 381.917">
  <g id="Grupo_38749" data-name="Grupo 38749" transform="translate(-1095 -134.583)">
    <rect id="Retângulo_3487" data-name="Retângulo 3487" width="148" height="91" transform="translate(1454.559 342.083) rotate(180)" fill="#262d8f"/>
    <ellipse id="Elipse_1268" data-name="Elipse 1268" cx="24" cy="23" rx="24" ry="23" transform="translate(1278.559 392.083) rotate(180)" fill="#5677ff"/>
    <path id="Polígono_3" data-name="Polígono 3" d="M43.716,4.382a5,5,0,0,1,7.568,0l36.575,42.35A5,5,0,0,1,84.075,55H10.925a5,5,0,0,1-3.784-8.268Z" transform="translate(1220.112 463.5) rotate(-133)" fill="#002292"/>
    <rect id="Retângulo_3488" data-name="Retângulo 3488" width="208" height="91" transform="translate(1278.059 342.583) rotate(-90)" fill="#262d8f"/>
    <path id="Polígono_4" data-name="Polígono 4" d="M54.269,4.181a5,5,0,0,1,7.461,0l46.837,52.49A5,5,0,0,1,104.837,65H11.163a5,5,0,0,1-3.731-8.329Z" transform="translate(1174.112 516.5) rotate(-133)" fill="#00256e"/>
  </g>
</svg>
