<svg xmlns="http://www.w3.org/2000/svg" width="53.254" height="28.077" viewBox="0 0 53.254 41.236">
  <g id="eye" transform="translate(0 -74.667)">
    <g id="Grupo_38457" data-name="Grupo 38457" transform="translate(0 74.667)">
      <g id="Grupo_38456" data-name="Grupo 38456" transform="translate(0 0)">
        <path id="Caminho_44694" data-name="Caminho 44694" d="M177.929,170.667c-4.006,0-7.262,3.7-7.262,8.247s3.256,8.247,7.262,8.247,7.262-3.7,7.262-8.247S181.935,170.667,177.929,170.667Z" transform="translate(-151.302 -158.296)" fill="blue"/>
        <path id="Caminho_44695" data-name="Caminho 44695" d="M26.627,74.667c-12.1,0-22.439,8.549-26.627,20.618C4.188,107.353,14.524,115.9,26.627,115.9s22.439-8.55,26.627-20.618C49.066,83.216,38.742,74.667,26.627,74.667Zm0,34.363c-6.681,0-12.1-6.158-12.1-13.745s5.422-13.745,12.1-13.745,12.1,6.158,12.1,13.745S33.308,109.03,26.627,109.03Z" transform="translate(0 -74.667)" fill="blue"/>
      </g>
    </g>
  </g>
</svg>
