<svg xmlns="http://www.w3.org/2000/svg" width="44.281" height="26.077" viewBox="0 0 44.281 41.077">
  <path id="info" d="M22.141,0C9.932,0,0,9.214,0,20.538S9.932,41.077,22.141,41.077s22.141-9.214,22.141-20.538S34.349,0,22.141,0Zm1.44,32.724c-1.052.163-3.145.569-4.208.651a2.654,2.654,0,0,1-2.266-1.094,2.412,2.412,0,0,1-.335-2.35l4.185-10.675H16.605c0-2.224,1.795-3.86,4.1-4.488a17.166,17.166,0,0,1,4.207-.647,3.431,3.431,0,0,1,2.266,1.094,2.412,2.412,0,0,1,.335,2.35L23.324,28.24h4.35a4.659,4.659,0,0,1-4.094,4.484Zm1.327-19.888a2.673,2.673,0,0,1-2.768-2.567,2.775,2.775,0,0,1,5.535,0,2.673,2.673,0,0,1-2.768,2.567Z" fill="blue"/>
</svg>
