<svg id="account_circle-24px" xmlns="http://www.w3.org/2000/svg" width="90.492" height="86.239" viewBox="0 0 90.492 86.239">
  <path id="Caminho_44771" data-name="Caminho 44771" d="M0,0H90.492V86.239H0Z" fill="none"/>
  <path id="Caminho_44772" data-name="Caminho 44772" d="M39.705,2C18.892,2,2,18.1,2,37.933S18.892,73.866,39.705,73.866,77.41,57.768,77.41,37.933,60.518,2,39.705,2Zm0,10.78A11.04,11.04,0,0,1,51.017,23.56,11.04,11.04,0,0,1,39.705,34.34,11.04,11.04,0,0,1,28.394,23.56,11.04,11.04,0,0,1,39.705,12.78Zm0,51.025a27.519,27.519,0,0,1-22.623-11.57c.113-7.151,15.082-11.067,22.623-11.067,7.5,0,22.51,3.917,22.623,11.067A27.519,27.519,0,0,1,39.705,63.8Z" transform="translate(5.541 5.187)" fill="#0058ff"/>
</svg>
