<svg xmlns="http://www.w3.org/2000/svg" width="42.688" height="46.381" viewBox="0 0 42.688 46.381">
  <g id="Grupo_38753" data-name="Grupo 38753" transform="translate(-4048.842 -10487)">
    <g id="google-play_1_" data-name="google-play (1)" transform="translate(4032.828 10487)">
      <g id="Grupo_38497" data-name="Grupo 38497" transform="translate(18.885 0)">
        <g id="Grupo_38496" data-name="Grupo 38496">
          <path id="Caminho_44783" data-name="Caminho 44783" d="M53.945.742A5.69,5.69,0,0,0,48.3.757L69.048,20.25l6.97-7.1Z" transform="translate(-48.302 0)" fill="#111"/>
        </g>
      </g>
      <g id="Grupo_38499" data-name="Grupo 38499" transform="translate(16.014 2.751)">
        <g id="Grupo_38498" data-name="Grupo 38498" transform="translate(0)">
          <path id="Caminho_44784" data-name="Caminho 44784" d="M16.811,30.365a5.48,5.48,0,0,0-.8,2.832V68.4a5.5,5.5,0,0,0,.743,2.762L37.62,49.917Z" transform="translate(-16.014 -30.365)" fill="#111"/>
        </g>
      </g>
      <g id="Grupo_38501" data-name="Grupo 38501" transform="translate(41.723 14.609)">
        <g id="Grupo_38500" data-name="Grupo 38500">
          <path id="Caminho_44785" data-name="Caminho 44785" d="M319.22,165.013l-6.648-3.736-7.47,7.606,9.155,8.6,4.966-2.791a5.526,5.526,0,0,0,0-9.679Z" transform="translate(-305.102 -161.277)" fill="#111"/>
        </g>
      </g>
      <g id="Grupo_38503" data-name="Grupo 38503" transform="translate(18.792 24.268)">
        <g id="Grupo_38502" data-name="Grupo 38502" transform="translate(0)">
          <path id="Caminho_44786" data-name="Caminho 44786" d="M68.166,267.9l-20.92,21.308a5.678,5.678,0,0,0,5.737.055l23.726-13.337Z" transform="translate(-47.246 -267.901)" fill="#111"/>
        </g>
      </g>
    </g>
  </g>
</svg>
