<svg xmlns="http://www.w3.org/2000/svg" width="55.852" height="45.587" viewBox="0 0 55.852 57.587">
  <g id="start-button" transform="translate(0)">
    <path id="Caminho_44696" data-name="Caminho 44696" d="M14.207,138.268l-4.839.385a4.3,4.3,0,0,0-3.29,2l-5.58,8.7a3.153,3.153,0,0,0-.24,2.948,2.993,2.993,0,0,0,2.277,1.8l4.43.707A41.528,41.528,0,0,1,14.207,138.268Z" transform="translate(0 -122.716)" fill="blue"/>
    <path id="Caminho_44697" data-name="Caminho 44697" d="M226.682,389.231l.686,4.568a3.059,3.059,0,0,0,1.746,2.348,2.9,2.9,0,0,0,2.86-.248l8.44-5.754a4.478,4.478,0,0,0,1.936-3.392l.374-4.989A39.107,39.107,0,0,1,226.682,389.231Z" transform="translate(-201.955 -338.826)" fill="blue"/>
    <path id="Caminho_44698" data-name="Caminho 44698" d="M105.029,256.205a2.732,2.732,0,0,0,.463-.04,31.319,31.319,0,0,0,6.644-1.942l-18.21-18.775a33.846,33.846,0,0,0-1.884,6.85,3,3,0,0,0,.8,2.562l10.161,10.476A2.823,2.823,0,0,0,105.029,256.205Z" transform="translate(-81.968 -208.966)" fill="blue"/>
    <path id="Caminho_44699" data-name="Caminho 44699" d="M160.9,25.532c4.456-8.883,4.621-18.269,4.388-22.671A2.914,2.914,0,0,0,162.582.067c-.7-.039-1.519-.067-2.448-.067a42.139,42.139,0,0,0-19.54,4.592,45.175,45.175,0,0,0-17.681,18.632,1.661,1.661,0,0,1,.152.137L142.7,43.606a1.679,1.679,0,0,1,.132.156A45.157,45.157,0,0,0,160.9,25.532ZM141.979,12.174a8.017,8.017,0,0,1,11.57,0,8.622,8.622,0,0,1,0,11.93,8.017,8.017,0,0,1-11.57,0,8.622,8.622,0,0,1,0-11.93Z" transform="translate(-109.505)" fill="blue"/>
    <path id="Caminho_44700" data-name="Caminho 44700" d="M307.169,124.932a4.81,4.81,0,0,0,6.942,0,5.173,5.173,0,0,0,0-7.158,4.81,4.81,0,0,0-6.942,0,5.173,5.173,0,0,0,0,7.158Z" transform="translate(-272.381 -103.214)" fill="blue"/>
    <path id="Caminho_44701" data-name="Caminho 44701" d="M1.941,351.847a1.606,1.606,0,0,0,1.157-.494l5.342-5.508a1.724,1.724,0,0,0,0-2.386,1.6,1.6,0,0,0-2.314,0L.784,348.967a1.724,1.724,0,0,0,0,2.386,1.607,1.607,0,0,0,1.157.494Z" transform="translate(-0.272 -304.39)" fill="blue"/>
    <path id="Caminho_44702" data-name="Caminho 44702" d="M13.068,388.34a1.6,1.6,0,0,0-2.314,0L.483,398.93a1.724,1.724,0,0,0,0,2.386,1.6,1.6,0,0,0,2.314,0l10.271-10.59a1.724,1.724,0,0,0,0-2.386Z" transform="translate(-0.003 -344.223)" fill="blue"/>
    <path id="Caminho_44703" data-name="Caminho 44703" d="M95.888,433.221l-5.342,5.508a1.724,1.724,0,0,0,0,2.386,1.6,1.6,0,0,0,2.314,0l5.342-5.508a1.724,1.724,0,0,0,0-2.386A1.6,1.6,0,0,0,95.888,433.221Z" transform="translate(-80.242 -384.056)" fill="blue"/>
  </g>
</svg>
