<svg xmlns="http://www.w3.org/2000/svg" width="55.899" height="44" viewBox="0 0 55.899 57">
  <path id="settings" d="M54.583,22.01l-4.3-.952a24.107,24.107,0,0,0-1.383-3.4l2.378-3.773a1.729,1.729,0,0,0-.224-2.125L44.366,4.935a1.647,1.647,0,0,0-2.084-.228l-3.7,2.425a23.132,23.132,0,0,0-3.334-1.41l-.934-4.381A1.678,1.678,0,0,0,32.682,0H23.217a1.678,1.678,0,0,0-1.632,1.341l-.934,4.381a23.132,23.132,0,0,0-3.334,1.41l-3.7-2.425a1.647,1.647,0,0,0-2.084.228L4.84,11.76a1.729,1.729,0,0,0-.224,2.125l2.378,3.773a24.107,24.107,0,0,0-1.383,3.4l-4.3.952A1.7,1.7,0,0,0,0,23.674v9.652A1.7,1.7,0,0,0,1.315,34.99l4.3.952a24.106,24.106,0,0,0,1.383,3.4L4.616,43.115A1.729,1.729,0,0,0,4.84,45.24l6.693,6.825a1.647,1.647,0,0,0,2.084.228l3.7-2.425a23.132,23.132,0,0,0,3.334,1.41l.934,4.381A1.678,1.678,0,0,0,23.217,57h9.465a1.678,1.678,0,0,0,1.632-1.341l.934-4.381a23.131,23.131,0,0,0,3.334-1.41l3.7,2.425a1.646,1.646,0,0,0,2.084-.228l6.693-6.825a1.729,1.729,0,0,0,.224-2.125L48.9,39.342a24.107,24.107,0,0,0,1.383-3.4l4.3-.952A1.7,1.7,0,0,0,55.9,33.326V23.674A1.7,1.7,0,0,0,54.583,22.01ZM37.971,28.5A10.024,10.024,0,1,1,27.949,18.281,10.134,10.134,0,0,1,37.971,28.5Zm0,0" transform="translate(0 0)" fill="blue"/>
</svg>
