<svg xmlns="http://www.w3.org/2000/svg" width="61.971" height="57.743" viewBox="0 0 61.971 61.743">
  <g id="XMLID_1318_" transform="translate(0 -0.127)">
    <g id="Grupo_38472" data-name="Grupo 38472" transform="translate(1.21 16.275)">
      <path id="XMLID_1301_" d="M2.9,0A2.894,2.894,0,1,1,0,2.894,2.9,2.9,0,0,1,2.9,0Z" transform="translate(19.719 38.601)" fill="blue"/>
      <path id="XMLID_1300_" d="M3.871,0A3.859,3.859,0,1,1,0,3.859,3.865,3.865,0,0,1,3.871,0Z" transform="translate(0 30.16)" fill="blue"/>
      <path id="XMLID_1283_" d="M3.871,0A3.859,3.859,0,1,1,0,3.859,3.865,3.865,0,0,1,3.871,0Z" transform="translate(51.809 9.418)" fill="blue"/>
      <path id="XMLID_1281_" d="M3.871,0A3.859,3.859,0,1,1,0,3.859,3.865,3.865,0,0,1,3.871,0Z" transform="translate(4.013 10.383)" fill="blue"/>
      <ellipse id="XMLID_1280_" cx="2.903" cy="2.894" rx="2.903" ry="2.894" transform="translate(37.1 5.788)" fill="blue"/>
      <ellipse id="XMLID_1279_" cx="2.903" cy="2.894" rx="2.903" ry="2.894" transform="translate(17.976)" fill="blue"/>
      <path id="XMLID_1278_" d="M3.871,0A3.859,3.859,0,1,1,0,3.859,3.865,3.865,0,0,1,3.871,0Z" transform="translate(46.828 30.16)" fill="blue"/>
    </g>
    <ellipse id="XMLID_913_" cx="5.323" cy="5.306" rx="5.323" ry="5.306" transform="translate(25.662 34.616)" fill="blue"/>
    <g id="XMLID_361_" transform="translate(0 0.127)">
      <path id="XMLID_364_" d="M5.081,374.127a5.065,5.065,0,1,0,5.081,5.065A5.079,5.079,0,0,0,5.081,374.127Zm0,7.718a2.653,2.653,0,1,1,2.661-2.653A2.66,2.66,0,0,1,5.081,381.845Z" transform="translate(0 -329.025)" fill="blue"/>
      <path id="XMLID_367_" d="M86.045,34.616a5.071,5.071,0,1,0-5.03-4.351L65.644,36.42a6.562,6.562,0,0,0-.891-1.1l4.4-6.44a4.114,4.114,0,1,0-2-1.36l-4.4,6.441a6.492,6.492,0,0,0-1.4-.432V1.333a1.21,1.21,0,0,0-2.42,0V33.524l-.025,0L53.934,22.267a4.113,4.113,0,1,0-2.69,1,4.14,4.14,0,0,0,.476-.028l4.935,11.178a6.575,6.575,0,0,0-1.93,1.864L43.259,31.356A5.081,5.081,0,1,0,42.3,33.57L53.768,38.5a6.461,6.461,0,0,0-.035,2.691L47.462,43.7a1.206,1.206,0,0,0,.9,2.238l6.275-2.512a6.57,6.57,0,0,0,2,1.989l-3.315,8.27c-.111-.009-.222-.015-.335-.015a4.114,4.114,0,1,0,2.581.911l3.314-8.269a6.535,6.535,0,0,0,6.465-2.462l10.761,5.334a5.086,5.086,0,1,0,1.08-2.158L66.427,41.691a6.467,6.467,0,0,0,.122-3.035L81.92,32.5A5.081,5.081,0,0,0,86.045,34.616ZM70.368,23.269a1.688,1.688,0,1,1-1.694,1.688A1.693,1.693,0,0,1,70.368,23.269Zm-20.818-4.1a1.694,1.694,0,1,1,1.694,1.688A1.693,1.693,0,0,1,49.551,19.169Zm-11.3,14a2.653,2.653,0,1,1,2.661-2.653A2.66,2.66,0,0,1,38.249,33.169ZM52.988,59.459a1.688,1.688,0,1,1,1.694-1.688A1.693,1.693,0,0,1,52.988,59.459ZM81.065,47.64A2.653,2.653,0,1,1,78.4,50.293,2.66,2.66,0,0,1,81.065,47.64ZM60.141,44.023a4.1,4.1,0,1,1,4.113-4.1A4.111,4.111,0,0,1,60.141,44.023ZM86.045,26.9a2.653,2.653,0,1,1-2.661,2.653A2.66,2.66,0,0,1,86.045,26.9Z" transform="translate(-29.155 -0.127)" fill="blue"/>
      <path id="XMLID_374_" d="M104.73,377.537a1.22,1.22,0,0,0-.855.353,1.2,1.2,0,0,0,0,1.705,1.208,1.208,0,1,0,.855-2.059Z" transform="translate(-90.997 -332.024)" fill="blue"/>
    </g>
  </g>
</svg>
