<svg xmlns="http://www.w3.org/2000/svg" width="706.095" height="822.687" viewBox="0 0 706.095 822.687">
  <g id="Grupo_38482" data-name="Grupo 38482" transform="translate(-67.932 297.85)">
    <g id="Caminho_44710" data-name="Caminho 44710" transform="translate(139.365 214.316) rotate(-45)" fill="#fff">
      <path d="M 249.0653381347656 332.7742309570313 C 247.4766082763672 332.7742309570313 245.8775177001953 332.7380676269531 244.2678833007813 332.6657104492188 C 182.7824249267578 329.9026184082031 128.5035247802734 275.6235046386719 125.7404251098633 214.1380615234375 C 124.3029708862305 182.1535186767578 137.0262451171875 161.8162384033203 147.9527893066406 150.3875122070313 C 163.2155151367188 134.4235229492188 185.0167846679688 125.6318817138672 209.3404235839844 125.6318817138672 C 210.9291534423828 125.6318817138672 212.5284271240234 125.6680603027344 214.1380615234375 125.7404251098633 C 275.6235046386719 128.5035247802734 329.9026184082031 182.7824249267578 332.6657104492188 244.2678833007813 C 334.1031494140625 276.25244140625 321.3798828125 296.5896911621094 310.4531555175781 308.0184326171875 C 295.1904296875 323.982421875 273.38916015625 332.7742309570313 249.0653381347656 332.7742309570313 Z" stroke="none"/>
      <path d="M 209.3407592773438 9.631622314453125 C 212.654052734375 9.631622314453125 215.9888000488281 9.70623779296875 219.3456268310547 9.857086181640625 C 340.4870910644531 15.30120849609375 443.104736328125 117.9188537597656 448.5485534667969 239.0603179931641 C 453.8418273925781 356.8446655273438 365.3226623535156 448.7740783691406 249.0657043457031 448.7740783691406 C 245.7524108886719 448.7740783691406 242.4171447753906 448.6994018554688 239.0603179931641 448.5485534667969 C 117.9188537597656 443.104736328125 15.30120849609375 340.4870910644531 9.857086181640625 219.3456268310547 C 4.564117431640625 101.5612487792969 93.08380126953125 9.631622314453125 209.3407592773438 9.631622314453125 Z" stroke="none" fill="#3a4151"/>
    </g>
    <path id="Caminho_44711" data-name="Caminho 44711" d="M63.316,2.845,516.4,23.206c34.969,1.571,64.59,31.193,66.162,66.162s-25.5,62.042-60.471,60.471L69.007,129.478C34.038,127.906,4.417,98.285,2.845,63.316S28.348,1.274,63.316,2.845Z" transform="translate(64 112.16) rotate(-45)" fill="#4040ff"/>
  </g>
</svg>
